<?xml version="1.0" encoding="UTF-8"?> <svg xmlns="http://www.w3.org/2000/svg" xmlns:xlink="http://www.w3.org/1999/xlink" viewBox="0 0 132.64 53.87"><defs><style>.cls-1{fill:url(#linear-gradient);}.cls-2{fill:#fff;}</style><linearGradient id="linear-gradient" x1="35.53" y1="82.88" x2="80.84" y2="0.56" gradientUnits="userSpaceOnUse"><stop offset="0" stop-color="#eb706a"></stop><stop offset="0.43" stop-color="#ec7469"></stop><stop offset="1" stop-color="#faac6e"></stop></linearGradient></defs><title>betterRX_logo_outlined</title><g id="Layer_2" data-name="Layer 2"><g id="Layer_1-2" data-name="Layer 1"><rect class="cls-1" width="132.64" height="53.87" rx="26.94"></rect><path class="cls-2" d="M104.05,14.89c1.5,0,2.25.87,2.25,1.91a1.8,1.8,0,0,1-1.42,1.79l1.49,2.52h-1.44l-1.38-2.42H103v2.42h-1.25V14.89Zm0,1h-1v1.82h1c.69,0,1-.36,1-.92S104.7,15.93,104,15.93Z"></path><path class="cls-2" d="M110,19l-1.22,2.09h-1.41l2-3.13-2-3.09h1.43L110.11,17l1.21-2.09h1.41l-2,3.13,2,3.09h-1.43Z"></path><path class="cls-2" d="M36.92,22.25a6.83,6.83,0,0,0-3.11.76l-.49.25V17.38h0a1.6,1.6,0,0,0-3.18,0h0v5.14h-.05V29.3a6.74,6.74,0,0,0,2.24,4.81l.15.12a7,7,0,0,0,1.1.77l.3.16a6.66,6.66,0,0,0,1.16.45l.15,0,.17.05a6.61,6.61,0,0,0,1.54.19h0a6.83,6.83,0,1,0,0-13.65Zm0,10.45h-.1a3.44,3.44,0,0,1-1.11-.22l-.35-.13a4,4,0,0,1-.88-.58l-.13-.15a3.86,3.86,0,0,1-.8-1.18l0-.12a3.4,3.4,0,0,1-.24-1.18,3.64,3.64,0,1,1,3.64,3.57Z"></path><path class="cls-2" d="M51.84,22.27a6.83,6.83,0,1,0,0,13.65l.39,0h0a6.52,6.52,0,0,0,1.37-.25l.15,0,.21,0a6.09,6.09,0,0,0,1.32-.64l.24-.11h0l.12-.11A6.89,6.89,0,0,0,58,31.83H54.14a3.45,3.45,0,0,1-.9.57l-.1.05a3.4,3.4,0,0,1-1.06.23,1.32,1.32,0,0,1-.24,0,3.59,3.59,0,0,1-3.13-1.89l-.3-.54H58.6l0-1.08-.09-.4.1,0A6.84,6.84,0,0,0,51.84,22.27Zm-3.38,5.5.35-.56a3.51,3.51,0,0,1,6.06,0l.35.56Z"></path><path class="cls-2" d="M83.55,22.27a6.83,6.83,0,0,0,0,13.65l.39,0h0a6.41,6.41,0,0,0,1.37-.25l.16,0,.21,0A6.56,6.56,0,0,0,87,34.92a1.33,1.33,0,0,1,.24-.11h0l.12-.11a6.79,6.79,0,0,0,2.37-2.87H85.86a3.45,3.45,0,0,1-.9.57l-.11.05a3.27,3.27,0,0,1-1.06.23,1.09,1.09,0,0,1-.24,0,3.57,3.57,0,0,1-3.12-1.89l-.3-.54H90.32l.05-1.08v-.42A6.82,6.82,0,0,0,83.55,22.27Zm-3.37,5.5.34-.56a3.51,3.51,0,0,1,6.06,0l.35.56Z"></path><path class="cls-2" d="M66.55,21.67v0h-3V17.4h0a1.6,1.6,0,0,0-3.18,0h0V30.14s0,0,0,.07c0,1.61.88,4.82,4.27,5.45a1.53,1.53,0,0,0,.3,0,1.62,1.62,0,0,0,.29-3.21c-1.51-.28-1.62-1.94-1.62-2.27,0,0,0-.05,0-.07V24.86h3a1.6,1.6,0,0,0,0-3.18Z"></path><path class="cls-2" d="M100,22.62v0a6.51,6.51,0,0,0-1.34-.16h0a6.83,6.83,0,0,0-6.84,6.64l0,5.46h0a1.6,1.6,0,0,0,3.19,0h0v-5.4h0a3.68,3.68,0,0,1,3.68-3.5h.09a2.53,2.53,0,0,1,.53.06h0l.1,0a1.6,1.6,0,0,0,.64-3.11Z"></path><path class="cls-2" d="M75.72,21.68v0h-3V17.38h0a1.6,1.6,0,0,0-3.18,0h0V30.11s0,.06,0,.1c0,1.61.88,4.82,4.27,5.45a1.53,1.53,0,0,0,.3,0,1.62,1.62,0,0,0,.29-3.21c-1.51-.28-1.62-1.94-1.62-2.27,0,0,0-.06,0-.09V24.86h3a1.53,1.53,0,0,0,1.37-1.59A1.51,1.51,0,0,0,75.72,21.68Z"></path></g></g></svg> 